<svg id="Layer_1" data-name="Layer 1" xmlns="http://www.w3.org/2000/svg" viewBox="0 0 125 25"><defs><style>.cls-1{fill:#fff;}</style></defs><path class="cls-1" d="M100,0H0V25H125V0ZM19.81,24,12.5,18.59,5.19,24,8,15.22.68,9.78h9L12.5,1l2.79,8.81h9L17,15.22Zm25,0L37.5,18.59,30.19,24,33,15.22l-7.3-5.44h9L37.5,1l2.79,8.81h9L42,15.22Zm25,0L62.5,18.59,55.19,24,58,15.22l-7.3-5.44h9L62.5,1l2.79,8.81h9L67,15.22Zm25,0L87.5,18.59,80.19,24,83,15.22l-7.3-5.44h9L87.5,1l2.79,8.81h9L92,15.22Zm25,0-7.31-5.44L105.19,24,108,15.22l-7.3-5.44h9L112.5,1l2.79,8.81h9L117,15.22Z"/></svg>