<svg width="273" height="128" viewBox="0 0 273 128" fill="none" xmlns="http://www.w3.org/2000/svg">
<path d="M157.486 16.1046C161.499 16.1046 164.472 17.7025 166.404 20.8985C168.336 24.0944 169.303 27.9395 169.303 32.4338C169.303 36.8782 168.733 43.6196 167.593 52.6581H154.588L152.953 35.2802C152.655 32.284 152.259 30.2865 151.764 29.2878C151.268 28.2891 150.426 27.7897 149.237 27.7897C146.413 27.7897 144.827 30.3115 144.48 35.3551L143.217 52.6581H129.988L128.353 35.2802C128.056 32.284 127.66 30.2865 127.164 29.2878C126.669 28.2891 125.827 27.7897 124.638 27.7897C121.714 27.7897 120.129 30.3115 119.881 35.3551L119.138 52.6581H105.464L103.903 17.1532H120.699L120.401 24.2692C120.501 24.0694 120.624 23.7948 120.773 23.4452C120.971 23.0457 121.417 22.3716 122.111 21.4228C122.854 20.474 123.671 19.6501 124.563 18.9509C125.455 18.2518 126.669 17.6027 128.205 17.0034C129.79 16.4042 131.475 16.1046 133.258 16.1046C136.132 16.1046 138.461 17.0284 140.244 18.876C142.078 20.7237 143.267 22.7711 143.812 25.0182C144.555 23.7698 145.199 22.7711 145.744 22.022C146.289 21.273 147.106 20.3741 148.196 19.3255C150.426 17.1782 153.522 16.1046 157.486 16.1046Z" fill="#716B6B"/>
<path d="M191.481 18.2019L192.745 17.7525L190.218 52.6581H176.172L173.794 17.7525C176.618 18.901 179.615 19.4753 182.786 19.4753C186.006 19.4753 188.905 19.0508 191.481 18.2019ZM183.232 16.1795C180.755 16.1795 178.674 15.4304 176.989 13.9323C175.305 12.4342 174.462 10.4867 174.462 8.08973C174.462 5.64283 175.28 3.69531 176.915 2.24715C178.599 0.749048 180.68 0 183.158 0C185.684 0 187.79 0.749048 189.475 2.24715C191.159 3.74524 192.001 5.69277 192.001 8.08973C192.001 10.4867 191.159 12.4342 189.475 13.9323C187.79 15.4304 185.709 16.1795 183.232 16.1795Z" fill="#716B6B"/>
<path d="M214.923 4.04486L212.917 52.6581H199.242L197.236 4.04486H214.923Z" fill="#716B6B"/>
<path d="M238.768 53.4072C233.17 53.4072 228.463 51.7843 224.648 48.5384C220.882 45.2426 219 40.4237 219 34.0817C219 30.0868 219.966 26.6911 221.898 23.8947C225.416 18.7013 230.866 16.1046 238.248 16.1046C243.896 16.1046 248.207 17.2531 251.179 19.5502C254.152 21.7973 255.638 24.9184 255.638 28.9133C255.638 32.0094 254.4 34.5312 251.922 36.4787C249.495 38.3763 245.927 39.3251 241.221 39.3251C239.288 39.3251 237.554 39.1753 236.018 38.8756L235.201 38.7258C235.449 40.5236 236.217 41.8718 237.505 42.7707C238.842 43.6196 240.428 44.0441 242.261 44.0441C245.283 44.0441 247.86 43.1203 249.99 41.2726L254.598 46.8905C253.805 47.8393 252.864 48.7381 251.774 49.587C250.684 50.386 248.95 51.235 246.572 52.1338C244.193 52.9827 241.592 53.4072 238.768 53.4072ZM244.788 28.2392C244.788 27.2404 244.392 26.4165 243.599 25.7673C242.856 25.1181 241.815 24.7935 240.477 24.7935C239.14 24.7935 237.876 25.3928 236.687 26.5912C235.548 27.7897 234.978 29.2129 234.978 30.8608C236.068 31.3602 237.48 31.6099 239.214 31.6099C240.998 31.6099 242.36 31.3103 243.302 30.711C244.292 30.0618 244.788 29.2379 244.788 28.2392Z" fill="#716B6B"/>
<path d="M85.0195 55.8915C89.3795 58.5548 93.0128 62.35 95.9194 67.2771C98.9582 72.2042 100.478 78.7958 100.478 87.052C100.478 95.175 97.9012 102.566 92.7485 109.224C83.2359 121.741 68.7687 128 49.347 128C40.8913 128 32.5016 126.802 24.178 124.405C15.9866 121.874 9.90903 119.344 5.94542 116.814L0 113.219L8.52177 96.0406C18.0344 100.701 26.6223 103.032 34.2853 103.032C41.9482 103.032 45.7797 100.568 45.7797 95.6411C45.7797 92.8446 44.2603 90.2479 41.2216 87.851C38.3149 85.3208 34.6816 82.9239 30.3216 80.6601C26.0938 78.3963 21.7999 75.7996 17.4399 72.87C13.212 69.8072 9.57873 65.6125 6.53996 60.286C3.63331 54.8262 2.17999 48.5009 2.17999 41.31C2.17999 28.5263 7.00238 18.8053 16.6472 12.1471C26.4241 5.48886 38.1828 2.15976 51.9233 2.15976C60.1148 2.15976 67.7778 3.15849 74.9123 5.15595C82.1789 7.15341 87.3316 9.15088 90.3704 11.1483L95.1267 14.1445L87.3977 31.123C80.6595 28.1934 73.8553 26.7286 66.9851 26.7286C60.2469 26.7286 56.8778 29.3253 56.8778 34.5187C56.8778 37.3151 58.3312 39.8452 61.2378 42.109C64.2766 44.3728 67.9099 46.57 72.1377 48.7007C76.4977 50.6981 80.7916 53.0951 85.0195 55.8915Z" fill="#716B6B"/>
<path d="M143.757 126.003L142.047 108.774L128.819 109.973L127.258 126.003H112.766L108.307 80.6102H131.717L130.008 97.9132H141.007L139.298 80.6102H162.708L158.249 126.003H143.757Z" fill="#8BC65D"/>
<path d="M166.423 103.606C166.423 95.7659 168.677 89.7985 173.186 85.7037C177.744 81.6089 184.235 79.5615 192.657 79.5615C201.13 79.5615 207.62 81.6089 212.129 85.7037C216.687 89.7985 218.966 95.7659 218.966 103.606C218.966 111.446 216.563 117.264 211.757 121.059C207.001 124.854 200.634 126.752 192.657 126.752C184.73 126.752 178.364 124.854 173.558 121.059C168.801 117.264 166.423 111.446 166.423 103.606ZM199.197 103.306C199.197 93.2192 197.017 88.1756 192.657 88.1756C188.347 88.1756 186.192 93.2192 186.192 103.306C186.192 113.394 188.347 118.437 192.657 118.437C197.017 118.437 199.197 113.394 199.197 103.306Z" fill="#8BC65D"/>
<path d="M247.063 103.306C249.342 103.306 251.151 102.607 252.488 101.209C253.826 99.8108 254.495 98.1129 254.495 96.1155C254.495 94.0681 253.851 92.545 252.563 91.5463C251.324 90.4976 249.714 89.9733 247.732 89.9733H244.759L243.496 103.306H247.063ZM251.745 112.894H242.53L241.266 126.003H226.774L222.315 80.6102H255.461C260.663 80.6102 264.875 81.9584 268.095 84.655C271.365 87.3017 273 91.1218 273 96.1155C273 99.1616 272.381 101.808 271.142 104.055C269.953 106.303 268.318 108.05 266.237 109.299C262.224 111.696 257.393 112.894 251.745 112.894Z" fill="#8BC65D"/>
</svg>
