<?xml version="1.0" encoding="utf-8"?>
<!-- Generator: Adobe Illustrator 26.0.1, SVG Export Plug-In . SVG Version: 6.00 Build 0)  -->
<svg version="1.1" id="Layer_1" xmlns="http://www.w3.org/2000/svg" xmlns:xlink="http://www.w3.org/1999/xlink" x="0px" y="0px"
	 viewBox="0 0 384.1 384.1" style="enable-background:new 0 0 384.1 384.1;" xml:space="preserve">
<style type="text/css">
	.st0{fill:#5E3848;}
	.st1{fill:#FBFAFB;}
</style>
<g>
	<path class="st0" d="M103.9,263.1c-10.2-5-19-9.3-27.8-13.5C38.9,231.7,9.4,181,13.5,140.2c0.9-9.5,9.4-17,19.2-17.1
		c10.5,0,19.1,7.4,19.6,18.5c0.8,15.9,4.1,30.9,12.5,44.6c5.3,8.6,11.9,15.9,19.7,22.2c2.1,1.7,5.1,4.2,6.1-1
		c2.7-13.7,9.3-25.1,21.1-35.3c-8.1-1.2-11.8,2.1-14.8,6.7c-6,9.2-11.2,11-18.6,6.6c-7.1-4.2-8.4-11.1-3.7-20
		c11-21.2,40.4-26.8,59.3-10.9c4.2,3.6,8.1,5.4,13.7,4.9c11-1,21.1,3.3,31.5,6.4c2.6,0.8,6.9,3.2,8-0.9c0.9-3.3-3-5.8-6.2-7.1
		c-3.5-1.4-7.1-0.8-10.8,0c-8.2,1.8-14.5-1.7-16.4-8.3c-2.2-7.6,1.6-14,10.1-16.9c17.7-6.2,37.7,2.1,47.2,19.4
		c1.2,2.2,1.3,7.6,5.7,5.3c4.4-2.3,8.4-6.1,9.7-11.3c0.4-1.7-2.1-2.4-3.6-3.1c-4.7-2-9.4-3.9-14.1-6c-2.5-1.1-6.6-1.8-5.1-5.4
		c1.7-4.2,5.3-1.5,8-0.5c4.8,1.8,9.4,4,14.2,5.8c2.1,0.8,5,3.1,6.3-0.9c1.2-3.6-2.1-4.1-4.3-5.1c-5.5-2.4-11-4.6-16.5-7
		c-1.9-0.8-3.8-2-2.8-4.5c1-2.5,3.2-2.1,5.1-1.4c5.3,2,10.7,3.9,15.8,6.4c5,2.5,7.4,1.5,9.5-3.8c6.7-16.9,13.8-33.6,20.8-50.4
		c1.5-3.6,2.6-8,7.6-8.1c5.4-0.2,6.8,4.3,8.5,8.3c3.5,8.4,7.2,16.7,10.4,25.2c1.6,4.3,4.1,6.4,8.6,6.8c9.9,0.8,18.7,4.9,26.5,10.9
		c3.6,2.7,6.6,3.3,10.8,1.3c8.5-3.9,17.3-7.2,26-10.7c3.7-1.5,7.7-3.1,11.1,0.5c3.1,3.3,1.3,6.9-0.1,10.4c-7.1,17-14,34.2-21.4,51.1
		c-2.1,4.8-1.5,7.1,3.6,8.8c5.4,1.8,10.5,4.3,15.8,6.4c2.2,0.9,4.6,2,3.7,4.8c-1.2,3.6-4.1,2.1-6.4,1.2c-6.3-2.5-12.6-5.2-19-7.5
		c-1.6-0.6-4.1-2-4.9,1.1c-0.6,2.1,0.3,3.7,2.6,4.6c6.1,2.4,12.1,5,18.1,7.5c2.3,1,5.5,1.8,4.1,5.2c-1.4,3.4-4.2,1.7-6.5,0.8
		c-5-2-10.1-3.9-14.9-6.2c-4.6-2.2-7-1-9.3,3.5c-13.8,26.9-33.7,48.3-59.5,64.1c-4.6,2.8-5.4,5.1,0.3,7.3c0.5,0.2,1.1,0.4,1.6,0.7
		c5.6,3,13.5,4.7,13.5,12.5c0,8.5-7.8,11.2-14.3,13.8c-23.4,9.1-48,11.4-72.7,12.4c-33.3,1.4-66.5-0.2-98.8-9.4
		c-6.3-1.8-12.5-4.1-17.7-8.1c-6.9-5.2-6.9-11.8,0.3-16.5C91.5,269.2,96.9,266.8,103.9,263.1z M267.3,85.3
		c-8.2,19.8-15.8,38-23.4,56.3c-3.5,8.5-8.2,16.2-15.1,22.4c-18.5,16.4-39.7,19.9-62.6,11.5c-31.6-11.7-59,8.8-63.1,36.9
		c-0.4,2.7-1.6,5.9,1.3,7.9c4.1,2.8,6.4,6.2,2.9,10.5c-3.5,4.2-7.7,1.9-11.6,0c-35-17.5-53.7-45.9-56.3-84.9c-0.3-4.8-0.4-9.6-7-9.3
		c-6.3,0.3-6.9,5.3-6.3,10c1.1,9.2,1.4,18.8,4.2,27.6c9.5,29.3,27.8,52.2,55.5,66.2c15.4,7.8,31.8,14,47.9,20.4
		c15.9,6.3,32.6,9.9,49.8,10.3c32.7,0.9,62.6-8.1,90.1-25.9c8.9-5.7,15.7-12.5,18.6-22.8c4.5-16.5-5.3-34.4-21.5-39.2
		c-4.2-1.2-8.9-2.1-10.8,3.3c-1.9,5.2,1.4,7.8,6.1,9.1c1.6,0.5,3.2,1.2,4.7,2c11.3,6.5,12.7,22,3.1,30c-3.6,3-7.5,5.1-11.1,1.6
		c-3.5-3.4-1.2-6.9,1.8-10.2c4.5-5.1,3.3-8.7-3.2-11.4c-1.6-0.6-3.2-1.1-4.7-1.9c-7.2-3.9-11.9-12.5-10.1-19.8
		c1.8-7.5,5.2-14.5,13.7-15.4c23.2-2.4,43,14.3,45.8,37.9c0.2,1.4-0.8,3.6,2.5,4c20.6-27.2,29.2-60.2,44.2-92.5
		c-9.1,3.8-15.9,6.6-22.6,9.5c-4.6,2-8.3,1.6-12.2-2.3c-8.4-8.3-18.8-12.7-30.7-12.6c-5.8,0-8.7-2.5-10.6-7.8
		C273.8,99.9,270.7,93.3,267.3,85.3z"/>
	<path class="st1" d="M267.3,85.3c3.4,8,6.5,14.6,9,21.5c1.9,5.2,4.8,7.8,10.6,7.8c11.9-0.1,22.3,4.3,30.7,12.6
		c3.9,3.9,7.5,4.3,12.2,2.3c6.7-2.9,13.5-5.7,22.6-9.5c-15,32.3-23.6,65.3-44.2,92.5c-3.3-0.4-2.3-2.6-2.5-4
		c-2.8-23.6-22.6-40.3-45.8-37.9c-8.5,0.9-11.9,8-13.7,15.4c-1.7,7.3,2.9,15.9,10.1,19.8c1.5,0.8,3.1,1.3,4.7,1.9
		c6.5,2.7,7.8,6.3,3.2,11.4c-3,3.4-5.2,6.9-1.8,10.2c3.6,3.5,7.5,1.4,11.1-1.6c9.7-8,8.2-23.6-3.1-30c-1.5-0.8-3.1-1.5-4.7-2
		c-4.7-1.4-8-3.9-6.1-9.1c1.9-5.4,6.6-4.5,10.8-3.3c16.3,4.8,26.1,22.7,21.5,39.2c-2.8,10.3-9.7,17.1-18.6,22.8
		c-27.5,17.8-57.4,26.8-90.1,25.9c-17.2-0.5-33.8-4-49.8-10.3c-16.1-6.4-32.4-12.6-47.9-20.4c-27.7-14-46-36.8-55.5-66.2
		c-2.8-8.7-3.1-18.3-4.2-27.6c-0.5-4.7,0-9.6,6.3-10c6.5-0.3,6.6,4.5,7,9.3c2.6,39,21.3,67.4,56.3,84.9c3.9,1.9,8.1,4.2,11.6,0
		c3.5-4.3,1.2-7.7-2.9-10.5c-2.9-2-1.6-5.2-1.3-7.9c4.1-28.1,31.5-48.6,63.1-36.9c22.9,8.4,44.1,4.9,62.6-11.5
		c6.9-6.1,11.6-13.9,15.1-22.4C251.5,123.3,259.1,105,267.3,85.3z M121.1,219.7c0.1,11.2,5.8,18.7,13.7,20.9c9.2,2.5,18-1,22.8-9
		c5-8.3,7-8.5,13.8-1c2.6,2.8,5.2,4.4,8.9,2c3.5-2.3,3.5-5.2,1.9-8.8c-3.1-6.9-8.5-10.4-15.8-10.9c-8.4-0.6-15,2.7-19,10.2
		c-2.1,3.9-4.6,6.9-9.3,4.9c-4.7-2-4.1-6-3.1-10.2c1.8-7.4,14.9-17,25.5-18c14.8-1.4,25.9,4.3,33.4,17.2c2.2,3.8,4.7,6.6,9.4,4.1
		c4.9-2.7,4.4-6.4,1.9-10.7c-5.5-9.4-13-16.3-23.1-20.4c-17-6.9-32.5-2.5-46.5,7.4C127.3,203.1,121.7,211.5,121.1,219.7z
		 M285.5,160.9c3.6-3,7.5-4.6,10-8.2c1-1.5,2.4-3.7,0.4-3.9c-4.7-0.4-7.9-6.8-11.8-4.4c-3.2,1.9-0.6,7.2-0.3,11
		C284,157,284.8,158.5,285.5,160.9z M321.3,153.9c-0.5-2.3-2.6-4.1-6.2-3.9c-2,0.1-5,0.9-4.5,2.7c1.2,3.9,5.8,3.6,8.9,4.9
		C320.9,158.1,322.1,156.9,321.3,153.9z M272.5,138.3c1.4-2.8,0.9-4.9-1.3-6.8c-2.1-1.9-4.5-2.3-6.9-1c-0.9,0.5-2.1,1.5-2.1,2.3
		c0.1,3.1,3.3,2.3,4.9,3.5C268.6,137.3,270.6,137.6,272.5,138.3z"/>
	<path class="st0" d="M121.1,219.7c0.6-8.2,6.2-16.6,14.4-22.4c14-9.9,29.5-14.3,46.5-7.4c10.1,4.1,17.6,11,23.1,20.4
		c2.5,4.3,3,8-1.9,10.7c-4.7,2.6-7.2-0.3-9.4-4.1c-7.4-12.8-18.6-18.6-33.4-17.2c-10.6,1-23.7,10.6-25.5,18c-1,4.2-1.5,8.2,3.1,10.2
		c4.7,2,7.2-1,9.3-4.9c4-7.6,10.6-10.8,19-10.2c7.3,0.5,12.7,4,15.8,10.9c1.6,3.6,1.6,6.5-1.9,8.8c-3.6,2.3-6.3,0.8-8.9-2
		c-6.8-7.5-8.9-7.3-13.8,1c-4.8,8-13.6,11.5-22.8,9C126.9,238.5,121.2,230.9,121.1,219.7z"/>
	<path class="st0" d="M285.5,160.9c-0.7-2.3-1.5-3.9-1.6-5.5c-0.3-3.8-2.9-9.1,0.3-11c3.9-2.4,7.2,4,11.8,4.4
		c1.9,0.2,0.6,2.4-0.4,3.9C293,156.3,289.1,157.9,285.5,160.9z"/>
	<path class="st0" d="M321.3,153.9c0.8,3.1-0.4,4.2-1.8,3.7c-3.2-1.3-7.7-1-8.9-4.9c-0.6-1.8,2.5-2.6,4.5-2.7
		C318.7,149.8,320.8,151.6,321.3,153.9z"/>
	<path class="st0" d="M272.5,138.3c-1.8-0.7-3.8-1-5.4-2c-1.7-1.1-4.9-0.4-4.9-3.5c0-0.8,1.2-1.8,2.1-2.3c2.5-1.3,4.8-0.9,6.9,1
		C273.4,133.3,273.9,135.5,272.5,138.3z"/>
</g>
</svg>
