<?xml version="1.0" encoding="utf-8"?>
<!-- Generator: Adobe Illustrator 26.0.1, SVG Export Plug-In . SVG Version: 6.00 Build 0)  -->
<svg version="1.1" xmlns="http://www.w3.org/2000/svg" xmlns:xlink="http://www.w3.org/1999/xlink" x="0px" y="0px"
	 viewBox="0 0 225 225" style="enable-background:new 0 0 225 225;" xml:space="preserve">
<style type="text/css">
	
		.st0{clip-path:url(#SVGID_00000132778185613324454470000007956305640524702130_);fill:#FFFFFF;stroke:#625F5F;stroke-width:15;stroke-miterlimit:10;}
	.st1{clip-path:url(#SVGID_00000000209948591845572730000000821843540141917115_);}
	.st2{fill:none;stroke:#625F5F;stroke-width:8;stroke-linecap:round;stroke-miterlimit:10;}
	.st3{fill:#FFFEFE;stroke:#625F5F;stroke-width:8;stroke-linecap:round;stroke-miterlimit:10;}
	.st4{clip-path:url(#SVGID_00000137107666194591212570000010000043664629001856_);fill:#625F5F;}
	.st5{clip-path:url(#SVGID_00000052065782416287452510000005313550303837211796_);fill:#625F5F;}
	.st6{clip-path:url(#SVGID_00000032638638338387927060000018408535894911947449_);fill:#625F5F;}
	.st7{fill:#FFFFFF;}
</style>
<g id="Layer_1">
	<g id="fl1">
		<g>
			<g>
				<defs>
					<circle id="SVGID_1_" cx="112.5" cy="112.5" r="112.5"/>
				</defs>
				<clipPath id="SVGID_00000014618514599809797700000011663188382831374726_">
					<use xlink:href="#SVGID_1_"  style="overflow:visible;"/>
				</clipPath>
				
					<path style="clip-path:url(#SVGID_00000014618514599809797700000011663188382831374726_);fill:#FFFFFF;stroke:#625F5F;stroke-width:15;stroke-miterlimit:10;" d="
					M101.6,225c9.8,30.6-62.8-115.2-56.6-139c1.7-6.6,32.3,26.5,42.7,21c14.8-10.5,41.8-15,48.8-13.6c6.1,1.2,20.5-44.5,22.5-43.2
					s26.3,83.9,34.1,97.3s39.7,40.2,39.7,40.2S132.9,258,132.2,258C131.4,258,101.6,225,101.6,225z"/>
			</g>
			<g>
				<defs>
					<circle id="SVGID_00000155147264113008440310000015309800228571167933_" cx="112.5" cy="112.5" r="112.5"/>
				</defs>
				<clipPath id="SVGID_00000142154038828051679410000016781149111448058241_">
					<use xlink:href="#SVGID_00000155147264113008440310000015309800228571167933_"  style="overflow:visible;"/>
				</clipPath>
				<g style="clip-path:url(#SVGID_00000142154038828051679410000016781149111448058241_);">
					<line class="st2" x1="32.9" y1="173.1" x2="71" y2="160"/>
					<line class="st2" x1="37.4" y1="189.3" x2="74.9" y2="176.3"/>
					<path class="st3" d="M184.7,122.1c1.3,0.3,38.9-11.9,38.9-11.9"/>
					<line class="st2" x1="191.8" y1="138.3" x2="223.6" y2="126.7"/>
				</g>
			</g>
			<g>
				<defs>
					<circle id="SVGID_00000176757120712286168490000009696972272968432006_" cx="112.5" cy="112.5" r="112.5"/>
				</defs>
				<clipPath id="SVGID_00000111913671517074699020000012578104781771399594_">
					<use xlink:href="#SVGID_00000176757120712286168490000009696972272968432006_"  style="overflow:visible;"/>
				</clipPath>
				
					<circle style="clip-path:url(#SVGID_00000111913671517074699020000012578104781771399594_);fill:#625F5F;" cx="97.8" cy="146.2" r="7.8"/>
			</g>
			<g>
				<defs>
					<circle id="SVGID_00000064320943229171780790000014826492238412732083_" cx="112.5" cy="112.5" r="112.5"/>
				</defs>
				<clipPath id="SVGID_00000098188954116640712220000013833179511445882769_">
					<use xlink:href="#SVGID_00000064320943229171780790000014826492238412732083_"  style="overflow:visible;"/>
				</clipPath>
				
					<circle style="clip-path:url(#SVGID_00000098188954116640712220000013833179511445882769_);fill:#625F5F;" cx="154.7" cy="126.7" r="7.8"/>
			</g>
			<g>
				<defs>
					<circle id="SVGID_00000086686060361072265340000013293833820984472487_" cx="112.5" cy="112.5" r="112.5"/>
				</defs>
				<clipPath id="SVGID_00000008868679421522064800000003561648680926870417_">
					<use xlink:href="#SVGID_00000086686060361072265340000013293833820984472487_"  style="overflow:visible;"/>
				</clipPath>
				<path style="clip-path:url(#SVGID_00000008868679421522064800000003561648680926870417_);fill:#625F5F;" d="M124.2,133.1
					c2.8-2.8,14.4,6.4,14.9,9.4c0.5,3-11.6,8.7-14.3,7.9C122.1,149.5,121.5,135.9,124.2,133.1z"/>
			</g>
		</g>
	</g>
</g>
<g id="Layer_2">
	
		<rect x="83.9" y="132.6" transform="matrix(0.9648 -0.2632 0.2632 0.9648 -33.27 30.3712)" class="st7" width="25.6" height="13.5"/>
	
		<rect x="139.9" y="113.4" transform="matrix(0.9648 -0.2632 0.2632 0.9648 -26.2245 44.4336)" class="st7" width="25.6" height="13.5"/>
</g>
</svg>
