<?xml version="1.0" encoding="utf-8"?>
<!-- Generator: Adobe Illustrator 26.0.1, SVG Export Plug-In . SVG Version: 6.00 Build 0)  -->
<svg version="1.1" xmlns="http://www.w3.org/2000/svg" xmlns:xlink="http://www.w3.org/1999/xlink" x="0px" y="0px"
	 viewBox="0 0 225 225" style="enable-background:new 0 0 225 225;" xml:space="preserve">
<style type="text/css">
	
		.st0{clip-path:url(#SVGID_00000127022115861452567570000014315257450914685626_);fill:#FFFFFF;stroke:#625F5F;stroke-width:15;stroke-miterlimit:10;}
	.st1{clip-path:url(#SVGID_00000127022115861452567570000014315257450914685626_);}
	.st2{fill:#FFFEFE;stroke:#625F5F;stroke-width:8;stroke-linecap:round;stroke-miterlimit:10;}
	.st3{clip-path:url(#SVGID_00000127022115861452567570000014315257450914685626_);fill:#625F5F;}
</style>
<g id="fl0">
</g>
<g id="fl1">
	<g>
		<defs>
			<circle id="SVGID_1_" cx="112.5" cy="112.5" r="112.5"/>
		</defs>
		<clipPath id="SVGID_00000136411697069833929250000000523725058440064662_">
			<use xlink:href="#SVGID_1_"  style="overflow:visible;"/>
		</clipPath>
		
			<path style="clip-path:url(#SVGID_00000136411697069833929250000000523725058440064662_);fill:#FFFFFF;stroke:#625F5F;stroke-width:15;stroke-miterlimit:10;" d="
			M101.6,225c9.8,30.6-62.8-115.2-56.6-139c1.7-6.6,32.3,26.5,42.7,21c14.8-10.5,41.8-15,48.8-13.6c6.1,1.2,20.5-44.5,22.5-43.2
			c2,1.3,26.3,83.9,34.1,97.3c7.8,13.4,39.7,40.2,39.7,40.2S132.9,258,132.2,258C131.4,258,101.6,225,101.6,225z"/>
		<g style="clip-path:url(#SVGID_00000136411697069833929250000000523725058440064662_);">
			<line class="st2" x1="32.9" y1="173.1" x2="71" y2="160"/>
			<line class="st2" x1="37.4" y1="189.3" x2="74.9" y2="176.3"/>
			<path class="st2" d="M184.7,122.1c1.3,0.3,38.9-11.9,38.9-11.9"/>
			<line class="st2" x1="191.8" y1="138.3" x2="223.6" y2="126.7"/>
		</g>
		
			<circle style="clip-path:url(#SVGID_00000136411697069833929250000000523725058440064662_);fill:#625F5F;" cx="97.8" cy="146.2" r="7.8"/>
		
			<circle style="clip-path:url(#SVGID_00000136411697069833929250000000523725058440064662_);fill:#625F5F;" cx="154.7" cy="126.7" r="7.8"/>
		<path style="clip-path:url(#SVGID_00000136411697069833929250000000523725058440064662_);fill:#625F5F;" d="M119,138.4
			c0-3.9,14.7-5.7,17.2-3.9c2.5,1.8-2,14.4-4.5,15.7C129.1,151.4,119,142.3,119,138.4z"/>
	</g>
</g>
</svg>
