<svg width="56" height="56" viewBox="0 0 56 56" fill="none" xmlns="http://www.w3.org/2000/svg">
<circle cx="28" cy="28" r="28" fill="#FFA740"/>
<rect x="16.2654" y="26.209" width="2.51856" height="12.0014" rx="1.25928" transform="rotate(-60 16.2654 26.209)" fill="white"/>
<rect x="23.4761" y="13.7102" width="2.51856" height="12.0014" rx="1.25928" transform="rotate(-60 23.4761 13.7102)" fill="white"/>
<path d="M19.1501 23.7009L23.9573 15.3748L32.2834 20.1819L27.4763 28.508L19.1501 23.7009Z" fill="white"/>
<path d="M42.9454 34.3628L28.524 24.989L29.4854 22.5854C29.4854 22.5854 43.6664 29.5557 45.3489 30.9979C47.0314 32.44 45.8296 35.3243 42.9454 34.3628Z" fill="white"/>
<path d="M15.7847 37.7286C15.7847 36.7994 16.5379 36.0461 17.4672 36.0461H29.0042C29.9334 36.0461 30.6867 36.7994 30.6867 37.7286C30.6867 38.6578 29.9334 39.4111 29.0042 39.4111H17.4672C16.5379 39.4111 15.7847 38.6578 15.7847 37.7286Z" fill="white"/>
<path d="M14.8232 38.4497H31.6481V40.3725H14.8232V38.4497Z" fill="white"/>
</svg>
