<?xml version="1.0" encoding="utf-8"?>
<!-- Generator: Adobe Illustrator 26.0.1, SVG Export Plug-In . SVG Version: 6.00 Build 0)  -->
<svg version="1.1" xmlns="http://www.w3.org/2000/svg" xmlns:xlink="http://www.w3.org/1999/xlink" x="0px" y="0px"
	 viewBox="0 0 25 25" style="enable-background:new 0 0 25 25;" xml:space="preserve">
<style type="text/css">
	.st0{display:none;}
	.st1{fill:#DDDDDD;}
	.st2{fill:#DA1A1A;}
</style>
<g id="Layer_3" class="st0">
</g>
<g id="Layer_2">
	<g>
		<path class="st1" d="M8.7,21.7c-1.2-1.1-2.2-2.1-3.2-3.2c-0.7-0.8-1-1.1-1.5-1.8c-2.2-2.6-3.4-5.1-3.8-7.3C0,8.8,0,8.5,0,7.7V25
			h12.5c0,0-1-0.8-1.4-1.2C10.1,22.9,9.5,22.4,8.7,21.7z"/>
		<path class="st1" d="M17.5,0c0.4,0,1,0,1.2,0.1c1,0.2,1.9,0.4,2.7,0.9c2.1,1.2,3.4,3.3,3.6,6c0,0.2,0,0.3,0,0.5V0H17.5z"/>
		<path class="st1" d="M0.8,4.1c0.2-0.4,0.4-0.7,0.6-1C2.6,1,4.7,0,7.2,0c0.5,0,0.8,0,1.1,0.1c1.1,0.2,2.1,0.7,3,1.4
			c0.4,0.3,0.9,0.9,1.1,1.2l0,0.1l0-0.1c0.1-0.2,0.3-0.5,0.5-0.7c1.1-1.2,2.5-1.9,4-2.1c0.1,0,0.2,0,0.4,0H0v7.7C0,7.3,0,7,0,6.8
			C0.1,5.8,0.4,5,0.8,4.1z"/>
		<path class="st1" d="M21.6,16c-1.8,2.4-4.2,4.9-7.4,7.6c-0.5,0.4-1.8,1.5-1.8,1.5H25V7.4c0,0.5,0,1.1-0.1,1.6
			C24.6,11.1,23.5,13.5,21.6,16z"/>
	</g>
</g>
<g id="Layer_2_copy">
	<path class="st2" d="M25,6.9c-0.2-2.7-1.5-4.8-3.6-6c-0.8-0.5-1.7-0.7-2.7-0.9C18.4,0,17.9,0,17.5,0c-0.2,0-0.3,0-0.4,0
		c-1.6,0.2-2.9,0.9-4,2.1c-0.2,0.2-0.5,0.5-0.5,0.7l0,0.1l0-0.1c-0.2-0.3-0.8-0.9-1.1-1.2c-0.8-0.7-1.8-1.2-3-1.4C8,0.1,7.7,0,7.2,0
		C4.7,0,2.6,1,1.3,3.1c-0.2,0.3-0.4,0.6-0.6,1C0.4,5,0.1,5.8,0,6.8C0,7,0,7.3,0,7.7c0,0.7,0,1,0.2,1.7c0.4,2.3,1.7,4.7,3.8,7.3
		c0.5,0.6,0.8,1,1.5,1.8c1,1.1,2,2,3.2,3.2c0.7,0.7,1.3,1.2,2.3,2.1c0.4,0.4,1.4,1.2,1.4,1.2c0,0,1.3-1.1,1.8-1.5
		c3.1-2.6,5.6-5.2,7.4-7.6c1.8-2.5,2.9-4.8,3.3-7C25,8.5,25,7.9,25,7.4C25,7.2,25,7.1,25,6.9z M23.3,8.2c-0.2,1.8-1,3.8-2.5,5.9
		c-1.4,2.1-3.5,4.4-6.2,6.8c-0.8,0.7-2.1,1.8-2.1,1.8c0,0-1.7-1.5-2.7-2.4c-3.8-3.5-6-6.3-7.2-8.9c-0.5-1-0.7-1.9-0.9-2.9
		c0-0.4,0-1.4,0-1.8c0.2-1.1,0.6-2.2,1.2-3C3,3.7,3.2,3.5,3.3,3.4C3.7,3,4,2.7,4.5,2.4c0.6-0.3,1.2-0.5,2-0.6c0.4,0,1.1,0,1.5,0
		c1.3,0.2,2.3,0.9,3.1,2c0.2,0.4,0.5,0.7,0.8,1.5c0.1,0.2,0.2,0.5,0.3,0.6c0,0.1,0.1,0.3,0.2,0.4c0.1,0.1,0.1,0.2,0.1,0.2
		c0,0,0.2-0.4,0.4-0.8c0.5-1,0.6-1.1,0.8-1.5c0.8-1.4,2-2.2,3.4-2.4c0.1,0,0.2,0,0.2,0c0.1,0,1.1,0,1.3,0c0.8,0.1,1.4,0.3,2,0.7
		c0.6,0.3,0.9,0.6,1.3,1C22,3.7,22.2,3.9,22.3,4c0.5,0.8,0.8,1.6,1,2.6C23.3,7,23.3,7.8,23.3,8.2z"/>
</g>
</svg>
