<svg width="51" height="34" viewBox="0 0 51 34" fill="none" xmlns="http://www.w3.org/2000/svg">
<g clip-path="url(#clip0_844_132)">
<path d="M2.53774 15.3958H7.75068C7.79203 12.8622 8.14197 10.4139 8.75029 8.24309H5.33157C5.0512 8.24309 4.82401 8.01591 4.82401 7.73554C4.82401 7.45517 5.0512 7.22799 5.33157 7.22799H9.06118C9.60378 5.59266 10.3007 4.14743 11.1288 2.98785C11.2918 2.75972 11.6088 2.7068 11.8368 2.86976C12.0649 3.03265 12.1178 3.3497 11.9549 3.57776C11.2363 4.58393 10.6225 5.82444 10.1301 7.22799H15.3957V2.53782C15.3957 2.25745 15.6228 2.03027 15.9032 2.03027C16.1836 2.03027 16.4108 2.25745 16.4108 2.53782V7.22799H21.6764C21.184 5.82444 20.5702 4.58393 19.8516 3.57776C19.6887 3.3497 19.7416 3.03265 19.9697 2.86976C20.1979 2.70687 20.5148 2.75979 20.6777 2.98785C21.5058 4.14743 22.2027 5.59273 22.7453 7.22799H26.4749C26.7553 7.22799 26.9825 7.45517 26.9825 7.73554C26.9825 8.01591 26.7553 8.24309 26.4749 8.24309H23.0562C23.6645 10.4139 24.0144 12.8622 24.0558 15.3958H29.2687C29.5491 15.3958 29.7762 15.6229 29.7762 15.9033C29.7762 16.1837 29.5491 16.4109 29.2687 16.4109H24.0558C24.0144 18.9444 23.6645 21.3927 23.0562 23.5635H26.4749C26.7553 23.5635 26.9825 23.7907 26.9825 24.0711C26.9825 24.3514 26.7553 24.5786 26.4749 24.5786H22.7453C22.2027 26.2142 21.5056 27.6597 20.6772 28.8194C20.5782 28.9581 20.4221 29.0321 20.2637 29.0321C20.1617 29.0321 20.0586 29.0013 19.9692 28.9375C19.7411 28.7746 19.6883 28.4576 19.8511 28.2295C20.5699 27.2232 21.1838 25.9824 21.6764 24.5787H16.4108V29.2688C16.4108 29.5491 16.1836 29.7763 15.9032 29.7763C15.6228 29.7763 15.3957 29.5491 15.3957 29.2688V24.5786H10.13C10.6225 25.9824 11.2365 27.2231 11.9553 28.2294C12.1182 28.4575 12.0653 28.7745 11.8373 28.9375C11.7479 29.0013 11.6448 29.032 11.5427 29.032C11.3843 29.032 11.2283 28.958 11.1292 28.8194C10.3009 27.6596 9.60385 26.2141 9.06111 24.5785H5.3315C5.05113 24.5785 4.82395 24.3514 4.82395 24.071C4.82395 23.7906 5.05113 23.5634 5.3315 23.5634H8.75029C8.14197 21.3926 7.79203 18.9443 7.75068 16.4108H2.53774C2.25737 16.4108 2.03019 16.1836 2.03019 15.9032C2.03019 15.6229 2.25737 15.3958 2.53774 15.3958ZM9.80315 8.24309C9.1729 10.3872 8.80869 12.842 8.76599 15.3958H15.3957V8.24309H9.80315ZM22.0033 8.24309H16.4108V15.3958H23.0405C22.9977 12.842 22.6335 10.3872 22.0033 8.24309ZM22.0033 23.5635C22.6335 21.4194 22.9977 18.9646 23.0405 16.4109H16.4108V23.5635H22.0033ZM9.80315 23.5635H15.3957V16.4109H8.76599C8.80875 18.9646 9.1729 21.4195 9.80315 23.5635Z" fill="#055D69"/>
<path d="M4.6579 4.65795C7.66164 1.65421 11.6552 0 15.9032 0C20.1511 0 24.1447 1.65421 27.1484 4.65795C30.1522 7.6617 31.8064 11.6553 31.8064 15.9033C31.8064 19.0346 30.9002 22.0547 29.1831 24.6545L31.1266 30.4845C31.1873 30.6668 31.1399 30.868 31.0039 31.0039C30.868 31.1398 30.667 31.1872 30.4845 31.1265L24.6544 29.1832C22.0545 30.9002 19.0345 31.8065 15.9032 31.8065C11.6552 31.8065 7.66164 30.1522 4.6579 27.1485C1.65415 24.1448 -5.53131e-05 20.1511 -5.53131e-05 15.9033C-5.53131e-05 11.6553 1.65415 7.6617 4.6579 4.65795ZM15.9032 30.7914C18.914 30.7914 21.8148 29.8966 24.292 28.2039C24.3774 28.1455 24.4774 28.1153 24.5783 28.1153C24.6323 28.1153 24.6865 28.1239 24.7389 28.1414L29.8425 29.8425L28.1412 24.739C28.0911 24.5884 28.1142 24.4231 28.2037 24.2921C29.8965 21.815 30.7913 18.9141 30.7913 15.9033C30.7913 7.69391 24.1126 1.0151 15.9032 1.0151C7.69379 1.0151 1.01504 7.69391 1.01504 15.9033C1.01504 24.1126 7.69379 30.7914 15.9032 30.7914Z" fill="#055D69"/>
</g>
<path d="M36.5732 30.9286C36.0999 30.9286 35.6832 30.8686 35.3232 30.7486C34.9632 30.622 34.6599 30.4353 34.4132 30.1886C34.1732 29.942 33.9899 29.6353 33.8632 29.2686C33.7365 28.902 33.6732 28.4786 33.6732 27.9986V24.2386C33.6732 24.0653 33.7165 23.9353 33.8032 23.8486C33.8965 23.762 34.0265 23.7186 34.1932 23.7186C34.3599 23.7186 34.4865 23.762 34.5732 23.8486C34.6665 23.9353 34.7132 24.0653 34.7132 24.2386V27.9786C34.7132 28.6653 34.8699 29.1786 35.1832 29.5186C35.5032 29.8586 35.9665 30.0286 36.5732 30.0286C37.1865 30.0286 37.6499 29.8586 37.9632 29.5186C38.2765 29.1786 38.4332 28.6653 38.4332 27.9786V24.2386C38.4332 24.0653 38.4765 23.9353 38.5632 23.8486C38.6565 23.762 38.7832 23.7186 38.9432 23.7186C39.1099 23.7186 39.2365 23.762 39.3232 23.8486C39.4099 23.9353 39.4532 24.0653 39.4532 24.2386V27.9986C39.4532 28.6386 39.3432 29.1786 39.1232 29.6186C38.9099 30.052 38.5899 30.3786 38.1632 30.5986C37.7365 30.8186 37.2065 30.9286 36.5732 30.9286ZM41.5772 30.9086C41.4105 30.9086 41.2805 30.862 41.1872 30.7686C41.1005 30.6753 41.0572 30.5453 41.0572 30.3786V24.2386C41.0572 24.0653 41.1005 23.9353 41.1872 23.8486C41.2805 23.762 41.4105 23.7186 41.5772 23.7186C41.7438 23.7186 41.8705 23.762 41.9572 23.8486C42.0505 23.9353 42.0972 24.0653 42.0972 24.2386V26.9586H42.1172L45.1872 23.9886C45.2872 23.8953 45.3805 23.8286 45.4672 23.7886C45.5605 23.742 45.6638 23.7186 45.7772 23.7186C45.9305 23.7186 46.0405 23.7586 46.1072 23.8386C46.1805 23.912 46.2105 24.002 46.1972 24.1086C46.1838 24.2153 46.1272 24.3186 46.0272 24.4186L42.8372 27.4586L42.8572 26.9486L46.1772 30.1486C46.2972 30.262 46.3605 30.3786 46.3672 30.4986C46.3738 30.6186 46.3372 30.7186 46.2572 30.7986C46.1772 30.872 46.0638 30.9086 45.9172 30.9086C45.7838 30.9086 45.6772 30.882 45.5972 30.8286C45.5172 30.7753 45.4238 30.6986 45.3172 30.5986L42.1172 27.5486H42.0972V30.3786C42.0972 30.5453 42.0538 30.6753 41.9672 30.7686C41.8805 30.862 41.7505 30.9086 41.5772 30.9086Z" fill="#055D69"/>
<rect x="34" y="32.9033" width="14.2581" height="1.09677" fill="#055D69"/>
<defs>
<clipPath id="clip0_844_132">
<rect width="31.8065" height="31.8065" fill="white" transform="matrix(-1 0 0 1 31.8064 0)"/>
</clipPath>
</defs>
</svg>
